<?xml version="1.0" encoding="UTF-8" standalone="no"?>
<!-- Created with Inkscape (http://www.inkscape.org/) -->

<svg
   xmlns:dc="http://purl.org/dc/elements/1.1/"
   xmlns:cc="http://creativecommons.org/ns#"
   xmlns:rdf="http://www.w3.org/1999/02/22-rdf-syntax-ns#"
   xmlns:svg="http://www.w3.org/2000/svg"
   xmlns="http://www.w3.org/2000/svg"
   xmlns:sodipodi="http://sodipodi.sourceforge.net/DTD/sodipodi-0.dtd"
   xmlns:inkscape="http://www.inkscape.org/namespaces/inkscape"
   width="500"
   height="500"
   viewBox="0 0 132.29166 132.29167"
   version="1.1"
   id="svg4716"
   inkscape:version="0.92.4 (5da689c313, 2019-01-14)"
   sodipodi:docname="whatido.svg">
  <defs
     id="defs4710" />
  <sodipodi:namedview
     id="base"
     pagecolor="#ffffff"
     bordercolor="#666666"
     borderopacity="1.0"
     inkscape:pageopacity="0.0"
     inkscape:pageshadow="2"
     inkscape:zoom="0.49497475"
     inkscape:cx="403.51258"
     inkscape:cy="452.325"
     inkscape:document-units="mm"
     inkscape:current-layer="layer1"
     showgrid="false"
     units="px"
     inkscape:window-width="1366"
     inkscape:window-height="741"
     inkscape:window-x="-9"
     inkscape:window-y="-9"
     inkscape:window-maximized="1" />
  <metadata
     id="metadata4713">
    <rdf:RDF>
      <cc:Work
         rdf:about="">
        <dc:format>image/svg+xml</dc:format>
        <dc:type
           rdf:resource="http://purl.org/dc/dcmitype/StillImage" />
        <dc:title></dc:title>
      </cc:Work>
    </rdf:RDF>
  </metadata>
  <g
     inkscape:label="Layer 1"
     inkscape:groupmode="layer"
     id="layer1"
     transform="translate(0,-164.70832)">
    <circle
       style="opacity:1;fill:#ff5851;fill-opacity:1;fill-rule:evenodd;stroke:#000000;stroke-width:0.18894915;stroke-miterlimit:4;stroke-dasharray:none;stroke-opacity:1;paint-order:markers fill stroke"
       id="path4718"
       cx="66.145836"
       cy="230.85416"
       r="63.882942" />
    <g
       aria-label="WHAT
I DO"
       transform="matrix(0.69069274,0,0,0.69069274,-46.795919,118.30499)"
       style="font-style:normal;font-variant:normal;font-weight:normal;font-stretch:condensed;font-size:42.66666794px;line-height:1.25;font-family:Impact;-inkscape-font-specification:'Impact, Condensed';font-variant-ligatures:normal;font-variant-caps:normal;font-variant-numeric:normal;text-align:start;letter-spacing:0px;word-spacing:0px;writing-mode:lr-tb;text-anchor:start;fill:#ffffff;fill-opacity:1;stroke:none"
       id="flowRoot4720">
      <path
         d="m 149.6862,119.06571 -3.89584,33.72917 h -10.95833 q -1.5,-7.77084 -2.64583,-17.66667 -0.52084,4.22916 -2.4375,17.66667 h -10.89584 l -3.91666,-33.72917 h 8.52083 l 0.89583,11.77083 0.91667,11.35417 q 0.47917,-8.8125 2.41667,-23.125 h 9.125 q 0.1875,1.47916 0.95833,11.125 l 0.95833,12.8125 q 0.72917,-12.22917 2.4375,-23.9375 z"
         style="text-align:center;text-anchor:middle;fill:#ffffff"
         id="path4762" />
      <path
         d="m 171.60286,119.06571 v 33.72917 h -8.77083 v -14.16667 h -2.625 v 14.16667 h -8.77083 v -33.72917 h 8.77083 v 12.0625 h 2.625 v -12.0625 z"
         style="text-align:center;text-anchor:middle;fill:#ffffff"
         id="path4764" />
      <path
         d="m 190.2487,119.06571 5.02083,33.72917 h -8.97917 l -0.4375,-6.0625 h -3.14583 l -0.52083,6.0625 h -9.08334 l 4.45834,-33.72917 z m -4.64584,21.6875 q -0.66666,-5.72917 -1.33333,-14.14584 -1.33333,9.66667 -1.66667,14.14584 z"
         style="text-align:center;text-anchor:middle;fill:#ffffff"
         id="path4766" />
      <path
         d="m 212.10286,119.06571 v 6.75 h -5.20833 v 26.97917 h -8.77083 v -26.97917 h -5.1875 v -6.75 z"
         style="text-align:center;text-anchor:middle;fill:#ffffff"
         id="path4768" />
      <path
         d="m 140.79036,172.39905 v 33.72917 h -8.77083 v -33.72917 z"
         style="text-align:center;text-anchor:middle;fill:#ffffff"
         id="path4770" />
      <path
         d="m 151.85286,172.39905 h 6.5625 q 6.35417,0 8.58334,0.58333 2.25,0.58334 3.41666,1.91667 1.16667,1.33333 1.45834,2.97917 0.29166,1.625 0.29166,6.41666 v 11.81251 q 0,4.54166 -0.4375,6.08333 -0.41666,1.52083 -1.47916,2.39583 -1.0625,0.85417 -2.625,1.20834 -1.5625,0.33333 -4.70834,0.33333 h -11.0625 z m 8.77084,5.77083 v 22.18751 q 1.89583,0 2.33333,-0.75 0.4375,-0.77084 0.4375,-4.14584 v -13.10417 q 0,-2.29166 -0.14583,-2.9375 -0.14584,-0.64583 -0.66667,-0.9375 -0.52083,-0.3125 -1.95833,-0.3125 z"
         style="text-align:center;text-anchor:middle;fill:#ffffff"
         id="path4772" />
      <path
         d="m 195.47787,192.14905 q 0,5.08334 -0.25,7.20834 -0.22917,2.10416 -1.5,3.85416 -1.25,1.75 -3.39584,2.6875 -2.14583,0.9375 -5,0.9375 -2.70833,0 -4.875,-0.875 -2.14583,-0.89583 -3.45833,-2.66666 -1.3125,-1.77084 -1.5625,-3.85417 -0.25,-2.08333 -0.25,-7.29167 v -5.77083 q 0,-5.08334 0.22916,-7.1875 0.25,-2.125 1.5,-3.875 1.27084,-1.75 3.41667,-2.6875 2.14584,-0.9375 5,-0.9375 2.70834,0 4.85417,0.89583 2.16667,0.875 3.47917,2.64583 1.3125,1.77084 1.5625,3.85417 0.25,2.08333 0.25,7.29167 z m -8.77084,-11.08333 q 0,-2.35417 -0.27083,-3 -0.25,-0.66667 -1.0625,-0.66667 -0.6875,0 -1.0625,0.54167 -0.35417,0.52083 -0.35417,3.125 v 15.75 q 0,2.9375 0.22917,3.625 0.25,0.6875 1.125,0.6875 0.89583,0 1.14583,-0.79167 0.25,-0.79166 0.25,-3.77083 z"
         style="text-align:center;text-anchor:middle;fill:#ffffff"
         id="path4774" />
    </g>
  </g>
</svg>
